<svg width="32" height="31" viewBox="0 0 32 31" fill="none" xmlns="http://www.w3.org/2000/svg">
<path d="M16 0C7.16392 0 0 6.98194 0 15.5936C0 23.3755 5.85019 29.8257 13.5006 31V20.1021H9.43614V15.5936H13.5006V12.158C13.5006 8.24671 15.8896 6.0899 19.5428 6.0899C21.2933 6.0899 23.1271 6.394 23.1271 6.394V10.2288H21.1045C19.1203 10.2288 18.4995 11.4328 18.4995 12.6664V15.5905H22.9335L22.2246 20.099H18.4995V30.9969C26.1498 29.8288 32 23.3771 32 15.5936C32 6.98194 24.8361 0 16 0V0Z" fill="#FF3D3D"/>
</svg>
