<svg width="32" height="32" viewBox="0 0 32 32" fill="none" xmlns="http://www.w3.org/2000/svg">
<path d="M15.8257 10.4878C12.919 10.4878 10.5469 12.8457 10.5469 15.735C10.5469 18.6243 12.919 20.9822 15.8257 20.9822C18.7325 20.9822 21.1046 18.6243 21.1046 15.735C21.1046 12.8457 18.7325 10.4878 15.8257 10.4878ZM31.6582 15.735C31.6582 13.5621 31.678 11.4089 31.5553 9.23992C31.4325 6.72062 30.8543 4.48474 29.001 2.6425C27.1437 0.796325 24.8983 0.225546 22.3639 0.103517C20.1779 -0.0185112 18.0117 0.00117086 15.8297 0.00117086C13.6437 0.00117086 11.4776 -0.0185112 9.29554 0.103517C6.76107 0.225546 4.51173 0.800262 2.65841 2.6425C0.801118 4.48868 0.226904 6.72062 0.10414 9.23992C-0.0186227 11.4128 0.00117791 13.566 0.00117791 15.735C0.00117791 17.904 -0.0186227 20.0611 0.10414 22.2301C0.226904 24.7494 0.805079 26.9853 2.65841 28.8275C4.51569 30.6737 6.76107 31.2445 9.29554 31.3665C11.4815 31.4885 13.6477 31.4688 15.8297 31.4688C18.0157 31.4688 20.1819 31.4885 22.3639 31.3665C24.8983 31.2445 27.1477 30.6697 29.001 28.8275C30.8583 26.9813 31.4325 24.7494 31.5553 22.2301C31.682 20.0611 31.6582 17.9079 31.6582 15.735ZM15.8257 23.8086C11.331 23.8086 7.70358 20.2028 7.70358 15.735C7.70358 11.2672 11.331 7.66142 15.8257 7.66142C20.3205 7.66142 23.9479 11.2672 23.9479 15.735C23.9479 20.2028 20.3205 23.8086 15.8257 23.8086ZM24.2806 9.2163C23.2311 9.2163 22.3837 8.37391 22.3837 7.33077C22.3837 6.28762 23.2311 5.44523 24.2806 5.44523C25.33 5.44523 26.1775 6.28762 26.1775 7.33077C26.1778 7.57846 26.1289 7.82379 26.0337 8.0527C25.9385 8.2816 25.7988 8.48959 25.6226 8.66474C25.4464 8.83989 25.2371 8.97876 25.0068 9.07341C24.7766 9.16806 24.5298 9.21662 24.2806 9.2163Z" fill="#FF3D3D"/>
</svg>
