<svg width="32" height="31" viewBox="0 0 32 31" fill="none" xmlns="http://www.w3.org/2000/svg">
<path d="M16 0C7.16429 0 0 6.9404 0 15.5C0 24.0596 7.16429 31 16 31C24.8357 31 32 24.0596 32 15.5C32 6.9404 24.8357 0 16 0ZM23.6893 11.6838C23.7 11.8464 23.7 12.016 23.7 12.182C23.7 17.261 19.7071 23.1116 12.4107 23.1116C10.1607 23.1116 8.075 22.4785 6.31786 21.3886C6.63929 21.4232 6.94643 21.4371 7.275 21.4371C9.13214 21.4371 10.8393 20.8281 12.2 19.7971C10.4571 19.7625 8.99286 18.6554 8.49286 17.133C9.10357 17.2195 9.65357 17.2195 10.2821 17.0638C9.38474 16.8872 8.57813 16.4151 7.99934 15.7276C7.42056 15.0401 7.10531 14.1798 7.10714 13.2926V13.2442C7.63214 13.5314 8.25 13.7078 8.89643 13.732C8.35301 13.3812 7.90735 12.9059 7.59897 12.3482C7.29059 11.7905 7.12901 11.1678 7.12857 10.5352C7.12857 9.81897 7.32143 9.16507 7.66786 8.59766C8.66394 9.78554 9.9069 10.7571 11.3159 11.4491C12.725 12.1412 14.2686 12.5382 15.8464 12.6145C15.2857 10.0023 17.3 7.88839 19.7214 7.88839C20.8643 7.88839 21.8929 8.35201 22.6179 9.09933C23.5143 8.93672 24.3714 8.61149 25.1357 8.17556C24.8393 9.06473 24.2179 9.81551 23.3929 10.2895C24.1929 10.2065 24.9643 9.99196 25.6786 9.69096C25.1393 10.459 24.4643 11.1406 23.6893 11.6838V11.6838Z" fill="#FF3D3D"/>
</svg>
